name analog
datacolumns 19
datarows 47
range 0.588 0.611
endheader
time	ground_force_vx	ground_force_vy	ground_force_vz	ground_force_px	ground_force_py	ground_force_pz	l_ground_force_vx	l_ground_force_vy	l_ground_force_vz	l_ground_force_px	l_ground_force_py	l_ground_force_pz	ground_torque_x	ground_torque_y	ground_torque_z	l_ground_torque_x	l_ground_torque_y	l_ground_torque_z
0.588	-0.0	-0.0	-0.0	-4.731934547424316	38.14781188964844	-407.5808715820313	7.186388969421387	-35.059654235839844	-402.5686340332031	-0.0	-0.0	-0.0	-0.0	-0.0	-0.0	91809.6328125	16612.26953125	-2523.874755859375
0.5885	-0.0	-0.0	-0.0	-5.880027770996094	38.14584732055664	-407.2242736816406	6.747996330261231	-35.32612609863281	-403.5990905761719	-0.0	-0.0	-0.0	-0.0	-0.0	-0.0	91563.5390625	16533.982421875	-2643.987548828125
0.589	-0.0	-0.0	-0.0	-5.448873519897461	37.96453094482422	-408.6133117675781	6.5654730796813965	-35.59189987182617	-402.5614929199219	-0.0	-0.0	-0.0	-0.0	-0.0	-0.0	91378.1875	16406.20703125	-2732.292236328125
0.5895	-0.0	-0.0	-0.0	-5.527921199798584	37.439979553222656	-407.2288818359375	6.824334144592285	-35.2421760559082	-401.8843383789063	-0.0	-0.0	-0.0	-0.0	-0.0	-0.0	91621.109375	16534.96875	-2734.41162109375
0.59	-0.0	-0.0	-0.0	-4.287516117095947	37.70216369628906	-407.5482177734375	6.741067409515381	-35.8576545715332	-404.31005859375	-0.0	-0.0	-0.0	-0.0	-0.0	-0.0	92054.3515625	16647.951171875	-2882.3623046875
0.5905	-0.0	-0.0	-0.0	-4.632326126098633	38.14229965209961	-407.5521545410156	6.559731483459473	-36.472015380859375	-405.015869140625	-0.0	-0.0	-0.0	-0.0	-0.0	-0.0	92155.59375	16694.376953125	-3118.02099609375
0.591	-0.0	-0.0	-0.0	-4.457098960876465	37.61188888549805	-406.5146484375	5.857947826385498	-36.917457580566406	-407.43206787109375	-0.0	-0.0	-0.0	-0.0	-0.0	-0.0	92251.78125	16426.095703125	-3237.23779296875
0.5915	-0.0	-0.0	-0.0	-4.284466743469238	38.41756820678711	-406.166259765625	6.115791320800781	-37.26861190795898	-408.1417236328125	-0.0	-0.0	-0.0	-0.0	-0.0	-0.0	92923.4765625	16609.58984375	-3356.450439453125
0.592	-0.0	-0.0	-0.0	-4.462930202484131	38.49592590332031	-407.9276123046875	5.413501262664795	-37.71123123168945	-408.8734436035156	-0.0	-0.0	-0.0	-0.0	-0.0	-0.0	93149.6484375	16340.98046875	-3416.01806640625
0.5925	-0.0	-0.0	-0.0	-4.80867862701416	38.23942565917969	-406.86328125	5.854911804199219	-38.15386199951172	-410.2619018554688	-0.0	-0.0	-0.0	-0.0	-0.0	-0.0	93763.484375	16250.07421875	-3416.52001953125
0.593	-0.0	-0.0	-0.0	-4.725596904754639	37.970829010009766	-406.84808349609375	6.033482551574707	-37.98175811767578	-413.7220764160156	-0.0	-0.0	-0.0	-0.0	-0.0	-0.0	94025.421875	16206.3984375	-3417.4892578125
0.5935	-0.0	-0.0	-0.0	-4.814775943756104	37.71381759643555	-406.8119812011719	6.387176513671875	-38.158447265625	-416.1841430664063	-0.0	-0.0	-0.0	-0.0	-0.0	-0.0	94498.1953125	16222.8046875	-3240.087890625
0.594	-0.0	-0.0	-0.0	-4.72014856338501	37.88175964355469	-404.74420166015625	7.270674228668213	-38.24329376220703	-416.872802734375	-0.0	-0.0	-0.0	-0.0	-0.0	-0.0	94641.625	16041.486328125	-3298.05615234375
0.5945	-0.0	-0.0	-0.0	-4.907951831817627	37.52252960205078	-404.0432739257813	7.183089733123779	-38.68489837646485	-416.2131652832031	-0.0	-0.0	-0.0	-0.0	-0.0	-0.0	94862.828125	16267.5859375	-3238.09765625
0.595	-0.0	-0.0	-0.0	-4.729552268981934	37.170169830322266	-402.2885437011719	7.627863883972168	-38.418678283691406	-416.5578002929688	-0.0	-0.0	-0.0	-0.0	-0.0	-0.0	95040.8359375	16061.2353515625	-3267.377685546875
0.5955	-0.0	-0.0	-0.0	-4.470563411712647	37.25507354736328	-402.25494384765625	7.633033752441406	-38.600467681884766	-417.94476318359375	-0.0	-0.0	-0.0	-0.0	-0.0	-0.0	95120.734375	16236.4404296875	-3297.519775390625
0.596	-0.0	-0.0	-0.0	-4.99578857421875	37.25503540039063	-399.7996826171875	7.194958209991455	-38.77722930908203	-418.6433715820313	-0.0	-0.0	-0.0	-0.0	-0.0	-0.0	95197.0625	16325.2734375	-3239.00927734375
0.5965	-0.0	-0.0	-0.0	-5.437305927276611	37.16587066650391	-398.3809814453125	7.541796207427978	-38.59795379638672	-419.3093872070313	-0.0	-0.0	-0.0	-0.0	-0.0	-0.0	95444.53125	16289.1123046875	-3267.0234375
0.597	-0.0	-0.0	-0.0	-5.269553184509277	37.34564208984375	-397.6623840332031	8.068479537963867	-38.94847106933594	-419.9908142089844	-0.0	-0.0	-0.0	-0.0	-0.0	-0.0	95141.5078125	16203.9150390625	-3238.940185546875
0.5975	-0.0	-0.0	-0.0	-5.798683166503906	37.34250259399414	-398.69036865234375	7.978213310241699	-39.13080978393555	-419.6802368164063	-0.0	-0.0	-0.0	-0.0	-0.0	-0.0	95350.5234375	16082.5771484375	-3178.798583984375
0.598	-0.0	-0.0	-0.0	-5.537495136260986	37.164161682128906	-396.6147155761719	8.075637817382812	-39.21482849121094	-418.3127136230469	-0.0	-0.0	-0.0	-0.0	-0.0	-0.0	95808.671875	16030.4892578125	-3265.28466796875
0.5985	-0.0	-0.0	-0.0	-5.089895725250244	36.728248596191406	-396.2549743652344	8.159893035888672	-39.122032165527344	-421.0827331542969	-0.0	-0.0	-0.0	-0.0	-0.0	-0.0	95808.78125	16205.5087890625	-3150.025634765625
0.599	-0.0	-0.0	-0.0	-4.746538162231445	36.89497756958008	-394.2083435058594	8.334200859069824	-38.69255447387695	-422.7863159179688	-0.0	-0.0	-0.0	-0.0	-0.0	-0.0	95783.8984375	16154.357421875	-3354.908447265625
0.5995	-0.0	-0.0	-0.0	-5.441841125488281	35.84067153930664	-395.56829833984375	7.458011150360107	-39.03975296020508	-422.8164367675781	-0.0	-0.0	-0.0	-0.0	-0.0	-0.0	96133.09375	16344.7060546875	-3501.805908203125
0.6	-0.0	-0.0	-0.0	-5.534514427185059	35.65562057495117	-395.58892822265625	7.454901695251465	-38.94509506225586	-422.81634521484375	-0.0	-0.0	-0.0	-0.0	-0.0	-0.0	96064.1484375	16225.0732421875	-3591.267333984375
0.6005	-0.0	-0.0	-0.0	-5.620262145996094	35.56657028198242	-396.6140747070313	7.267738342285156	-39.19853591918945	-422.4798889160156	-0.0	-0.0	-0.0	-0.0	-0.0	-0.0	96268.625	16329.8857421875	-3650.728515625
0.601	-0.0	-0.0	-0.0	-5.716709136962891	35.64854431152344	-398.0051574707031	6.745369911193848	-38.6015853881836	-421.12298583984375	-0.0	-0.0	-0.0	-0.0	-0.0	-0.0	96045.0859375	16765.982421875	-3714.69287109375
0.6015	-0.0	-0.0	-0.0	-5.875118732452393	35.11737823486328	-396.95257568359375	6.385485649108887	-39.38642120361328	-423.8900146484375	-0.0	-0.0	-0.0	-0.0	-0.0	-0.0	96094.2109375	16574.46875	-3919.9853515625
0.602	-0.0	-0.0	-0.0	-6.056995868682861	35.56675720214844	-394.9215698242188	6.834189414978027	-39.46946716308594	-423.8836669921875	-0.0	-0.0	-0.0	-0.0	-0.0	-0.0	96164.875	16598.142578125	-3860.91162109375
0.6025	-0.0	-0.0	-0.0	-6.159330368041992	35.56303405761719	-397.6429443359375	7.270748138427734	-39.39147186279297	-426.30023193359375	-0.0	-0.0	-0.0	-0.0	-0.0	-0.0	96878.0	16505.365234375	-3918.122802734375
0.603	-0.0	-0.0	-0.0	-6.508517742156982	35.47582244873047	-396.9361572265625	7.531466484069824	-39.916053771972656	-428.0457763671875	-0.0	-0.0	-0.0	-0.0	-0.0	-0.0	97049.515625	16467.89453125	-3685.517333984375
0.6035	-0.0	-0.0	-0.0	-6.704530715942383	35.38085174560547	-397.7117004394531	7.183745384216309	-40.09440612792969	-429.1145629882813	-0.0	-0.0	-0.0	-0.0	-0.0	-0.0	97511.40625	16221.119140625	-3802.072021484375
0.604	-0.0	-0.0	-0.0	-6.690788269042969	35.471900939941406	-395.1687316894531	7.449839115142822	-40.00786972045898	-428.4604797363281	-0.0	-0.0	-0.0	-0.0	-0.0	-0.0	97252.9921875	16457.515625	-3799.98779296875
0.6045	-0.0	-0.0	-0.0	-6.696910858154297	35.309913635253906	-396.5726013183594	6.92515754699707	-40.19775390625	-429.7981567382813	-0.0	-0.0	-0.0	-0.0	-0.0	-0.0	97265.8984375	16432.541015625	-3831.30908203125
0.605	-0.0	-0.0	-0.0	-7.043505668640137	35.21063232421875	-397.2947998046875	7.44785213470459	-40.44749450683594	-428.4469604492188	-0.0	-0.0	-0.0	-0.0	-0.0	-0.0	97397.90625	16409.259765625	-3803.262451171875
0.6055	-0.0	-0.0	-0.0	-7.051832675933838	35.03874969482422	-394.9050598144531	6.925337791442871	-39.933143615722656	-427.3693237304688	-0.0	-0.0	-0.0	-0.0	-0.0	-0.0	97051.5703125	16828.869140625	-3949.877685546875
0.606	-0.0	-0.0	-0.0	-7.304562091827393	35.38263320922852	-393.8380126953125	7.530396461486816	-40.45931243896485	-429.7820129394531	-0.0	-0.0	-0.0	-0.0	-0.0	-0.0	96947.421875	16522.92578125	-3861.916259765625
0.6065	-0.0	-0.0	-0.0	-6.956258296966553	35.65647888183594	-394.5105590820313	7.885132312774658	-40.18435287475586	-429.7658081054688	-0.0	-0.0	-0.0	-0.0	-0.0	-0.0	97068.7578125	16366.693359375	-3683.6171875
0.607	-0.0	-0.0	-0.0	-6.773397445678711	35.55863571166992	-393.4511413574219	8.15932846069336	-39.74270248413086	-428.75006103515625	-0.0	-0.0	-0.0	-0.0	-0.0	-0.0	97237.140625	16435.681640625	-3535.002685546875
0.6075	-0.0	-0.0	-0.0	-6.333946228027344	35.30011367797852	-392.0563049316406	8.780264854431152	-39.30315399169922	-430.1630554199219	-0.0	-0.0	-0.0	-0.0	-0.0	-0.0	97804.8671875	16072.7216796875	-3361.400146484375
0.608	-0.0	-0.0	-0.0	-6.061792850494385	35.12189483642578	-391.3502197265625	8.6091947555542	-39.39570236206055	-430.878173828125	-0.0	-0.0	-0.0	-0.0	-0.0	-0.0	98269.421875	15952.712890625	-3330.51806640625
0.6085	-0.0	-0.0	-0.0	-5.885593891143799	35.12197494506836	-390.9975280761719	9.143699645996094	-39.21052169799805	-432.2582092285156	-0.0	-0.0	-0.0	-0.0	-0.0	-0.0	98137.6796875	16094.88671875	-3296.164794921875
0.609	-0.0	-0.0	-0.0	-5.531051635742188	35.37542724609375	-390.6355285644531	9.22812271118164	-38.86373519897461	-433.969482421875	-0.0	-0.0	-0.0	-0.0	-0.0	-0.0	98316.1796875	16097.2041015625	-3382.064208984375
0.6095	-0.0	-0.0	-0.0	-5.704763889312744	35.281524658203125	-391.6765747070313	9.316849708557127	-38.69152069091797	-435.3484497070313	-0.0	-0.0	-0.0	-0.0	-0.0	-0.0	98568.421875	16275.544921875	-3323.349609375
0.61	-0.0	-0.0	-0.0	-5.284959316253662	34.76324844360352	-391.2760009765625	9.06203556060791	-38.58535003662109	-435.025146484375	-0.0	-0.0	-0.0	-0.0	-0.0	-0.0	98696.0078125	15973.494140625	-3324.219482421875
0.6105	-0.0	-0.0	-0.0	-5.268284320831299	34.59717559814453	-391.2559509277344	8.880256652832031	-38.845550537109375	-434.3626708984375	-0.0	-0.0	-0.0	-0.0	-0.0	-0.0	98970.5703125	16422.7109375	-3471.1748046875
0.611	-0.0	-0.0	-0.0	-5.335452556610107	34.67908477783203	-388.909423828125	8.871078491210938	-38.25251770019531	-433.6645202636719	-0.0	-0.0	-0.0	-0.0	-0.0	-0.0	99062.390625	16474.107421875	-3383.558349609375
